<?xml version="1.0" encoding="UTF-8"?>
<!DOCTYPE svg PUBLIC "-//W3C//DTD SVG 1.1//EN" "http://www.w3.org/Graphics/SVG/1.1/DTD/svg11.dtd">
<!-- Creator: CorelDRAW -->
<svg xmlns="http://www.w3.org/2000/svg" xml:space="preserve" width="6.82666in" height="6.82666in" style="shape-rendering:geometricPrecision; text-rendering:geometricPrecision; image-rendering:optimizeQuality; fill-rule:evenodd; clip-rule:evenodd"
viewBox="0 0 6.82666 6.82666"
 xmlns:xlink="http://www.w3.org/1999/xlink">
 <defs>
  <style type="text/css">
   <![CDATA[
    .fil3 {fill:none}
    .fil2 {fill:#424242}
    .fil0 {fill:#424242;fill-rule:nonzero}
    .fil1 {fill:#64B5F6;fill-rule:nonzero}
   ]]>
  </style>
 </defs>
 <g id="Layer_x0020_1">
  <metadata id="CorelCorpID_0Corel-Layer"/>
  <g id="_555127960">
   <path id="_555128872" class="fil0" d="M1.84832 5.0604l0 -1.8261c0.0807126,-0.0507913 0.169567,-0.087126 0.266669,-0.105146l0 1.93125 -0.266669 0z"/>
   <path id="_555128680" class="fil0" d="M2.46766 5.0604l0 -1.91938c0.0920039,0.0213228 0.181598,0.0553189 0.266669,0.0977126l0 1.82167 -0.266669 0z"/>
   <path id="_555128968" class="fil0" d="M3.08701 5.0604l0 -1.59193c0.0835551,0.0531614 0.172551,0.092248 0.266669,0.112055l0 1.47987 -0.266669 0z"/>
   <path id="_555128944" class="fil0" d="M3.70635 5.0604l0 -1.49847c0.0932835,-0.0288189 0.182319,-0.0746102 0.266669,-0.130102l0 1.62857 -0.266669 0z"/>
   <path id="_555127720" class="fil0" d="M4.3257 5.0604l0 -1.92515c0.0194961,-0.0192283 0.0385787,-0.0383465 0.0572165,-0.0571772 0.0401102,-0.0405276 0.079752,-0.0815118 0.11939,-0.1225 0.0299055,-0.0309213 0.0598307,-0.0619685 0.090063,-0.0927126l0 2.19754 -0.266669 0z"/>
  </g>
  <path class="fil1" d="M1.60231 2.94987c0.179744,-0.125602 0.37737,-0.191327 0.582445,-0.204122 0.320051,-0.0199606 0.654346,0.0916378 0.962386,0.307157 0.0305709,0.0213898 0.0592402,0.0424606 0.0859409,0.0631693 0.340354,0.263988 0.687331,-0.0948031 1.00087,-0.419028 0.0764646,-0.0790669 0.151213,-0.156362 0.224339,-0.224346 0.282248,-0.262402 0.549504,-0.404181 0.821008,-0.112146l-0.194787 0.181252c-0.120083,-0.129165 -0.273594,-0.0336417 -0.444969,0.125681 -0.0696535,0.0647559 -0.140969,0.1385 -0.213921,0.213937 -0.392429,0.405795 -0.826701,0.854862 -1.35504,0.445067 -0.0266732,-0.020689 -0.0518622,-0.0393228 -0.0755236,-0.055878 -0.259067,-0.181256 -0.535311,-0.275421 -0.794685,-0.259244 -0.214756,0.0133976 -0.420728,0.104535 -0.598067,0.287303l0 -0.348803z"/>
  <path class="fil1" d="M2.01282 1.16184l0.133484 0 0.0680709 0.219575 0.0630827 -0.219575 0.124579 0 -0.130835 0.352528c-0.0148425,0.0401811 -0.0301063,0.0673228 -0.0456969,0.0813189 -0.0219449,0.0199331 -0.0553465,0.0298976 -0.100295,0.0298976 -0.0182402,0 -0.0463346,-0.00254724 -0.0845,-0.0075315l-0.00985827 -0.0882047c0.0181299,0.00583071 0.0384803,0.00868898 0.0608543,0.00868898 0.0148425,0 0.0269252,-0.00338976 0.0361535,-0.0101772 0.00922441,-0.00688976 0.0170669,-0.0190827 0.0234291,-0.0366811l-0.138469 -0.329839z"/>
  <polygon class="fil0" points="1.49565,1.39927 1.49565,5.04053 5.79924,5.0401 5.79924,5.30572 1.36231,5.30616 1.22898,5.30617 1.22898,5.17335 1.22898,1.39927 "/>
  <polygon class="fil2" points="1.87128,1.65375 0.853331,1.65375 1.36231,1.14478 "/>
  <polygon class="fil1" points="5.40815,4.23476 5.55817,4.23476 5.61065,4.32668 5.6715,4.23476 5.81104,4.23476 5.69854,4.39188 5.81909,4.56459 5.6715,4.56459 5.61065,4.45836 5.53887,4.56459 5.40189,4.56459 5.5218,4.39188 "/>
  <polygon class="fil2" points="5.46436,5.68189 5.46436,4.66394 5.97333,5.17291 "/>
 </g>
 <rect class="fil3" width="6.82666" height="6.82666"/>
</svg>
